<?xml version="1.0" encoding="utf-8"?>
<!-- Generator: Adobe Illustrator 15.1.0, SVG Export Plug-In . SVG Version: 6.00 Build 0)  -->
<!DOCTYPE svg PUBLIC "-//W3C//DTD SVG 1.1//EN" "http://www.w3.org/Graphics/SVG/1.1/DTD/svg11.dtd">
<svg version="1.1" id="logo-svg" xmlns="http://www.w3.org/2000/svg" xmlns:xlink="http://www.w3.org/1999/xlink" x="0px" y="0px"
	 width="140px" height="65px" viewBox="0 0 140 65" enable-background="new 0 0 140 65" xml:space="preserve">
<g fill="#494949" class="letters">
	<polygon points="126.222,20 120.622,44 72.492,44 74.718,35 113.114,35 114.283,30 97.419,30 99.635,20 			"/>
	<polygon points="129.485,6 127.269,17 88.74,17 85.469,30 75.872,30 81.354,6 			"/>
	<path d="M16.993,35h48.13l-2.215,9h-48.13L16.993,35z M23.64,6h48.13l-2.215,11H31.026l-1.108,3h38.529l-2.216,10
				h-48.13L23.64,6z"/>
</g>
	<polygon class="line" fill="#29ABE2" points="13.643,49.668 119.491,49.646 117.276,59.206 11.428,59.226 	"/>
</svg>
